# xmcd
#
# Track frame offsets: 
#        150
#        12721
#        25295
#        40403
#        53275
#        71248
#        83876
#        94971
#        103530
#        113593
#        124885
#        135310
#        147471
#        163719
#        172303
#        184121
#
# Disc length: 2617 seconds
#
# Revision: 2
# Processed by: cddbd v1.5.2PL0 Copyright (c) Steve Scherf et al.
# Submitted via: ExactAudioCopy v0.99pb1
#
DISCID=e30a3710
DTITLE=Johnny Cash - Golden Hits
DYEAR=2003
DGENRE=Country
TTITLE0=Ring Of Fire
TTITLE1=I Walk The Line
TTITLE2=A Boy Named Sue
TTITLE3=San Quentin
TTITLE4=Orange Blossom Special
TTITLE5=The One On The Right Is On The Left
TTITLE6=I Love You Because
TTITLE7=Country Boy
TTITLE8=Ballad Of A Teenage Queen
TTITLE9=Oh Lonesome Me
TTITLE10=You Win Again
TTITLE11=You're The Nearest Thing To Heaven
TTITLE12=City Of New Orleans
TTITLE13=I Got Stripes
TTITLE14=The Highway Man
TTITLE15=Peace In The Valley
EXTD=YEAR: 2003
EXTT0=
EXTT1=
EXTT2=
EXTT3=
EXTT4=
EXTT5=
EXTT6=
EXTT7=
EXTT8=
EXTT9=
EXTT10=
EXTT11=
EXTT12=
EXTT13=
EXTT14=
EXTT15=
PLAYORDER=
